<?xml version="1.0" encoding="UTF-8" standalone="no"?>
<svg
   xmlns:dc="http://purl.org/dc/elements/1.1/"
   xmlns:cc="http://creativecommons.org/ns#"
   xmlns:rdf="http://www.w3.org/1999/02/22-rdf-syntax-ns#"
   xmlns:svg="http://www.w3.org/2000/svg"
   xmlns="http://www.w3.org/2000/svg"
   id="svg8"
   version="1.1"
   viewBox="0 0 59.386799 59.333279"
   height="59.333279mm"
   width="59.386799mm">
  <defs
     id="defs2" />
  <metadata
     id="metadata5">
    <rdf:RDF>
      <cc:Work
         rdf:about="">
        <dc:format>image/svg+xml</dc:format>
        <dc:type
           rdf:resource="http://purl.org/dc/dcmitype/StillImage" />
        <dc:title></dc:title>
      </cc:Work>
    </rdf:RDF>
  </metadata>
  <g
     transform="translate(-146.37409,-111.76043)"
     id="layer1">
    <path
       id="path847"
       d="m 149.70126,170.85265 c -1.14125,-0.34128 -2.76784,-2.05847 -3.09272,-3.26498 -0.62089,-2.30583 -0.80456,-2.06975 10.16181,-13.06155 6.40133,-6.41618 10.28603,-10.12032 10.61363,-10.12032 0.28421,0 0.7956,0.26198 1.13644,0.58218 l 0.6197,0.58218 2.20294,-2.19151 2.20294,-2.19149 -0.34658,-0.97037 c -0.44437,-1.24416 -0.44938,-2.12585 -0.0168,-2.95474 0.2955,-0.56621 0.2733,-0.83257 -0.15416,-1.84978 -1.26653,-3.01395 -1.63726,-7.65128 -0.85767,-10.72848 0.6019,-2.37585 2.30813,-5.62077 3.87917,-7.37745 1.82805,-2.04404 4.76848,-3.94256 7.46075,-4.81711 1.72742,-0.56113 2.69847,-0.70429 4.92932,-0.72672 3.31185,-0.0333 4.93387,0.32448 7.9375,1.75085 4.13667,1.96444 7.64624,6.22146 8.89064,10.78411 0.74679,2.73814 0.63284,6.9717 -0.26146,9.71405 -0.86715,2.6591 -2.81022,5.64691 -4.87121,7.49035 -1.70473,1.5248 -4.96974,3.23211 -7.31929,3.82735 -3.19984,0.81065 -8.49032,0.32855 -11.22138,-1.02257 -0.57227,-0.28311 -0.81256,-0.28206 -1.35688,0.006 -0.82644,0.43728 -1.70682,0.43369 -2.95474,-0.012 l -0.97036,-0.34658 -2.1915,2.20295 -2.1915,2.20294 0.58217,0.6197 c 0.3202,0.34082 0.58218,0.85072 0.58218,1.1331 0,0.65538 -19.67918,20.3519 -20.72087,20.73914 -0.86668,0.32217 -1.5967,0.3224 -2.67207,7.9e-4 z m 44.00243,-29.08112 c 5.73971,-2.26447 9.34371,-7.87583 8.93632,-13.91367 -0.24958,-3.69899 -1.74893,-6.77173 -4.5776,-9.38122 -8.79459,-8.11314 -23.15393,-1.86074 -23.15393,10.08178 0,6.13822 3.38955,11.07434 9.10113,13.25377 2.75652,1.05184 6.96973,1.03417 9.69408,-0.0407 z"
       style="fill:#000000;stroke-width:0.264583" />
  </g>
</svg>
